<svg width="535" height="620" viewBox="0 0 535 620" fill="none" xmlns="http://www.w3.org/2000/svg">
<line x1="1.5" y1="47" x2="1.5" y2="3" stroke="white" stroke-width="3"/>
<line y1="-1.5" x2="44" y2="-1.5" transform="matrix(4.37114e-08 -1 -1 -4.37114e-08 532 47)" stroke="white" stroke-width="3"/>
<line x1="533.5" y1="573" x2="533.5" y2="617" stroke="white" stroke-width="3"/>
<line y1="-1.5" x2="44" y2="-1.5" transform="matrix(-4.37114e-08 1 1 4.37114e-08 3 573)" stroke="white" stroke-width="3"/>
<line x1="3" y1="1.5" x2="47" y2="1.5" stroke="white" stroke-width="3"/>
<line y1="-1.5" x2="44" y2="-1.5" transform="matrix(-1 0 0 1 532 3)" stroke="white" stroke-width="3"/>
<line x1="532" y1="618.5" x2="488" y2="618.5" stroke="white" stroke-width="3"/>
<line y1="-1.5" x2="44" y2="-1.5" transform="matrix(1 0 0 -1 3 617)" stroke="white" stroke-width="3"/>
<path d="M277.216 339.752H271.648V345.192H267.52V339.752H261.984V335.848H267.52V330.408H271.648V335.848H277.216V339.752Z" fill="white"/>
</svg>
