<svg width="57" height="57" viewBox="0 0 57 57" fill="none" xmlns="http://www.w3.org/2000/svg">
<path d="M39.3451 22.2656L35.8961 15.8247L29.1366 13.5716L29.121 13.6197L18.6153 16.6213C17.8721 16.8361 17.2186 17.286 16.7527 17.9035C16.2868 18.5211 16.0337 19.2731 16.0313 20.0466V29.3906H19.5938V20.0468L27.7876 17.7057L24.1681 28.7977L24.1508 28.7915L20.8707 37.976C20.7119 38.4132 20.3893 38.7715 19.9711 38.9751C19.553 39.1787 19.072 39.2117 18.63 39.0671L11.2509 36.607L10.1243 39.9867L17.5033 42.4463C18.8291 42.8881 20.2752 42.793 21.5316 42.1814C22.7881 41.5697 23.755 40.4903 24.2251 39.1743L26.9228 31.6208L28.8346 32.2442L34.2118 37.6213C34.378 37.7864 34.5098 37.9828 34.5995 38.1992C34.6892 38.4156 34.7351 38.6477 34.7345 38.8819V50.7656H38.297V38.8819C38.2988 38.1799 38.1614 37.4844 37.8928 36.8358C37.6241 36.1872 37.2295 35.5983 36.7318 35.1032L31.3585 29.7301L34.3403 20.5926L36.4854 24.4538C36.7169 24.8702 37.0555 25.2172 37.4661 25.4589C37.8768 25.7005 38.3445 25.828 38.821 25.8281H48.0938V22.2656H39.3451ZM31.9321 12.2135C32.6319 12.7982 33.5101 13.1268 34.4218 13.1451C35.3335 13.1633 36.2242 12.8701 36.9468 12.3138C37.6694 11.7576 38.1807 10.9715 38.3962 10.0855C38.6118 9.19941 38.5187 8.26633 38.1325 7.44029C37.7462 6.61425 37.0897 5.94465 36.2715 5.54203C35.4533 5.13942 34.5223 5.02787 33.6321 5.2258C32.7419 5.42374 31.9459 5.91932 31.3754 6.63072C30.8049 7.34212 30.494 8.22681 30.4942 9.13871C30.4931 9.72541 30.6215 10.3051 30.87 10.8366C31.1185 11.368 31.4812 11.8382 31.9321 12.2135Z" fill="white"/>
</svg>
