<svg width="40" height="40" viewBox="0 0 40 40" fill="none" xmlns="http://www.w3.org/2000/svg">
<path d="M29.8333 18.1666C24.4999 15 15.5833 14.6666 10.4999 16.25C9.66659 16.5 8.83325 16 8.58325 15.25C8.33325 14.4166 8.83325 13.5833 9.58325 13.3333C15.4999 11.5833 25.2499 11.9166 31.4166 15.5833C32.1666 16 32.4166 17 31.9999 17.75C31.5833 18.3333 30.5833 18.5833 29.8333 18.1666ZM29.6666 22.8333C29.2499 23.4166 28.4999 23.6666 27.9166 23.25C23.4166 20.5 16.5833 19.6666 11.3333 21.3333C10.6666 21.5 9.91659 21.1666 9.74992 20.5C9.58325 19.8333 9.91659 19.0833 10.5833 18.9166C16.6666 17.0833 24.1666 18 29.3333 21.1666C29.8333 21.4166 30.0833 22.25 29.6666 22.8333ZM27.6666 27.4166C27.3333 27.9166 26.7499 28.0833 26.2499 27.75C22.3333 25.3333 17.4166 24.8333 11.5833 26.1666C10.9999 26.3333 10.4999 25.9166 10.3333 25.4166C10.1666 24.8333 10.5833 24.3333 11.0833 24.1666C17.4166 22.75 22.9166 23.3333 27.2499 26C27.8333 26.25 27.9166 26.9166 27.6666 27.4166ZM19.9999 3.33331C17.8112 3.33331 15.644 3.76441 13.6219 4.60199C11.5998 5.43957 9.76245 6.66722 8.21481 8.21487C5.0892 11.3405 3.33325 15.5797 3.33325 20C3.33325 24.4203 5.0892 28.6595 8.21481 31.7851C9.76245 33.3327 11.5998 34.5604 13.6219 35.398C15.644 36.2356 17.8112 36.6666 19.9999 36.6666C24.4202 36.6666 28.6594 34.9107 31.785 31.7851C34.9106 28.6595 36.6666 24.4203 36.6666 20C36.6666 17.8113 36.2355 15.644 35.3979 13.6219C34.5603 11.5998 33.3327 9.76251 31.785 8.21487C30.2374 6.66722 28.4001 5.43957 26.378 4.60199C24.3559 3.76441 22.1886 3.33331 19.9999 3.33331Z" fill="white"/>
</svg>
